<svg width="24" height="24" viewBox="0 0 24 24" fill="none" xmlns="http://www.w3.org/2000/svg">
<path d="M15.0837 17.5985L16.1575 22.514L11.7692 20.0577L7.33911 22.514L8.44355 17.4948" stroke="#4A453D" stroke-width="1.5" stroke-miterlimit="10"/>
<path d="M14.6348 1.70325H9.36069C8.03603 1.70325 6.82176 2.40237 6.15943 3.55532L3.52238 8.13029C2.86005 9.27097 2.86005 10.6815 3.52238 11.8222L6.15943 16.3971C6.82176 17.5378 8.03603 18.2492 9.36069 18.2492H14.6348C15.9595 18.2492 17.1737 17.5501 17.8361 16.3971L20.4731 11.8222C21.1354 10.6815 21.1354 9.27097 20.4731 8.13029L17.8361 3.55532C17.1737 2.41464 15.9595 1.70325 14.6348 1.70325Z" stroke="#4A453D" stroke-width="1.5" stroke-miterlimit="10"/>
<path d="M11.9868 5.59134L12.968 8.60862H16.157L13.5813 10.4852L14.5625 13.5025L11.9868 11.6382L9.42335 13.5025L10.4046 10.4852L7.82886 8.60862H11.0056L11.9868 5.59134Z" fill="#4A453D"/>
</svg>
