<svg width="60" height="20" viewBox="0 0 60 20" fill="none" xmlns="http://www.w3.org/2000/svg">
<path d="M22.6138 6.10352e-05C24.827 0.00024171 26.6318 1.80499 26.632 4.0182V8.84675C26.6318 11.06 24.827 12.8647 22.6138 12.8649L22.6214 12.8724H20.7392L27.3414 19.4897H22.9836L16.3821 12.8724H13.4282V9.78746H22.6214C23.138 9.78738 23.5545 9.37093 23.5545 8.85428V4.02649C23.5545 3.50981 23.138 3.0934 22.6214 3.09332H11.4767V19.4664H8.39178V6.10352e-05H22.6138Z" fill="#E31837"/>
<path d="M57.7392 3.1611H45.9032C44.5581 3.16116 43.4682 4.27862 43.4682 5.65709C43.4683 7.03552 44.5581 8.15228 45.9032 8.15233H53.758V8.16062C56.8039 8.16066 59.2855 10.7037 59.2855 13.8252C59.2854 16.9466 56.8039 19.4897 53.758 19.4897H40.8939V16.3204H53.758C55.1031 16.3204 56.1929 15.2036 56.193 13.8252C56.193 12.4467 55.0954 11.3292 53.758 11.3292H45.9032C42.8573 11.3291 40.3757 8.78605 40.3757 5.66463C40.3759 2.54334 42.8574 0.000119945 45.9032 6.10352e-05H57.7392V3.1611Z" fill="#E31837"/>
<path d="M3.08497 19.4122H0V6.10352e-05H3.08497V19.4122Z" fill="#E31837"/>
<path d="M35.6082 19.4122H32.5232V0.131112H35.6082V19.4122Z" fill="#E31837"/>
</svg>
