<svg width="19" height="16" viewBox="0 0 19 16" fill="none" xmlns="http://www.w3.org/2000/svg">
<path d="M14.8429 7.52203C15.0561 7.69745 15.3712 7.66677 15.5466 7.4535L18.4052 3.97811C18.5807 3.76484 18.55 3.44975 18.3367 3.27433C18.1234 3.09891 17.8084 3.1296 17.6329 3.34286L15.0919 6.4321L12.0027 3.8911C11.7894 3.71569 11.4744 3.74637 11.2989 3.95963C11.1235 4.1729 11.1542 4.48799 11.3675 4.66341L14.8429 7.52203ZM8.55984 15.1606L8.51139 14.663C4.74753 15.0295 1.39922 12.2754 1.03272 8.51156L0.53507 8.56002L0.0374234 8.60848C0.457452 12.922 4.29477 16.0783 8.6083 15.6583L8.55984 15.1606ZM0.53507 8.56002L1.03272 8.51156C0.666212 4.74771 3.42031 1.39939 7.18416 1.03289L7.1357 0.535243L7.08724 0.0375965C2.77371 0.457626 -0.382606 4.29494 0.0374234 8.60848L0.53507 8.56002ZM7.1357 0.535243L7.18416 1.03289C10.948 0.666385 14.2963 3.42048 14.6628 7.18433L15.1605 7.13587L15.6581 7.08742C15.2381 2.77388 11.4008 -0.382432 7.08724 0.0375965L7.1357 0.535243Z" fill="#4D4D4F"/>
</svg>
