<svg width="20" height="22" viewBox="0 0 20 22" fill="none" xmlns="http://www.w3.org/2000/svg">
<path d="M17.3869 4.95935C17.7258 5.15206 18.0071 5.43157 18.2021 5.76912C18.397 6.10667 18.4985 6.49008 18.4961 6.87987V14.0611C18.4961 14.8587 18.0593 15.5942 17.3544 15.9816L10.6996 20.1914C10.3697 20.3725 9.9994 20.4675 9.62303 20.4675C9.24665 20.4675 8.87635 20.3725 8.54643 20.1914L1.89166 15.9816C1.54676 15.7931 1.25884 15.5155 1.058 15.1776C0.857166 14.8398 0.75079 14.4541 0.75 14.0611V6.87888C0.75 6.0813 1.18675 5.34681 1.89166 4.95935L8.54643 1.0355C8.88611 0.848221 9.26768 0.75 9.65556 0.75C10.0434 0.75 10.425 0.848221 10.7647 1.0355L17.4195 4.95935H17.3869Z" stroke="#4A453D" stroke-width="1.5" stroke-linecap="round" stroke-linejoin="round"/>
<path d="M6.66535 10.6085C6.66535 11.3929 6.97696 12.1452 7.53163 12.6999C8.0863 13.2546 8.8386 13.5662 9.62303 13.5662C10.4074 13.5662 11.1597 13.2546 11.7144 12.6999C12.2691 12.1452 12.5807 11.3929 12.5807 10.6085C12.5807 9.8241 12.2691 9.0718 11.7144 8.51713C11.1597 7.96246 10.4074 7.65085 9.62303 7.65085C8.8386 7.65085 8.0863 7.96246 7.53163 8.51713C6.97696 9.0718 6.66535 9.8241 6.66535 10.6085Z" stroke="#4A453D" stroke-width="1.5" stroke-linecap="round" stroke-linejoin="round"/>
</svg>
