<svg width="24" height="24" viewBox="0 0 24 24" fill="none" xmlns="http://www.w3.org/2000/svg">
<path d="M3.88511 19.87C3.11511 19.87 2.48511 19.24 2.48511 18.47V4.79999C2.48511 4.02999 3.11511 3.39999 3.88511 3.39999H20.1151C20.8851 3.39999 21.5151 4.02999 21.5151 4.79999V18.47C21.5151 19.24 20.8851 19.87 20.1151 19.87H12.5951" stroke="#4A453D" stroke-width="1.5" stroke-miterlimit="10"/>
<path d="M10.6854 20.25L11.5554 14.45L6.05542 16.48L7.21542 17.42L6.14542 18.72L8.45542 20.6L9.52542 19.3L10.6854 20.25Z" stroke="#4A453D" stroke-width="1.5" stroke-miterlimit="10"/>
<path d="M4.83472 7.80002H21.1447" stroke="#4A453D" stroke-width="1.5" stroke-miterlimit="10"/>
<path d="M14.7039 12.18L14.698 15.2283" stroke="#4A453D" stroke-width="1.5" stroke-miterlimit="10"/>
<path d="M16.7234 10.95L16.7259 15.2282" stroke="#4A453D" stroke-width="1.5" stroke-miterlimit="10"/>
<path d="M18.7429 12.83L18.7683 15.2282" stroke="#4A453D" stroke-width="1.5" stroke-miterlimit="10"/>
</svg>
