<svg width="20" height="20" viewBox="0 0 20 20" fill="none" xmlns="http://www.w3.org/2000/svg">
<path d="M7.08268 12.0833C7.63522 12.0833 8.16512 11.8638 8.55582 11.4731C8.94652 11.0824 9.16602 10.5525 9.16602 10C9.16602 8.85 8.74935 8.33333 8.33268 7.5C7.43935 5.71417 8.14602 4.12167 9.99935 2.5C10.416 4.58333 11.666 6.58333 13.3327 7.91667C14.9993 9.25 15.8327 10.8333 15.8327 12.5C15.8327 13.266 15.6818 14.0246 15.3886 14.7323C15.0955 15.4401 14.6658 16.0831 14.1241 16.6248C13.5825 17.1665 12.9394 17.5961 12.2317 17.8893C11.5239 18.1824 10.7654 18.3333 9.99935 18.3333C9.2333 18.3333 8.47476 18.1824 7.76703 17.8893C7.0593 17.5961 6.41623 17.1665 5.87456 16.6248C5.33288 16.0831 4.9032 15.4401 4.61005 14.7323C4.3169 14.0246 4.16602 13.266 4.16602 12.5C4.16602 11.5392 4.52685 10.5883 4.99935 10C4.99935 10.5525 5.21884 11.0824 5.60954 11.4731C6.00024 11.8638 6.53015 12.0833 7.08268 12.0833Z" stroke="#ED1B32" stroke-width="1.66667" stroke-linecap="round" stroke-linejoin="round"/>
</svg>
