<svg width="17" height="17" viewBox="0 0 17 17" fill="none" xmlns="http://www.w3.org/2000/svg">
<g clip-path="url(#clip0_1_1353)">
<path d="M10.7033 14.0447V12.7071C10.7033 11.9976 10.4214 11.3171 9.91974 10.8154C9.41804 10.3137 8.7376 10.0319 8.02809 10.0319H4.01529C3.30578 10.0319 2.62533 10.3137 2.12364 10.8154C1.62194 11.3171 1.34009 11.9976 1.34009 12.7071V14.0447" stroke="#4A5565" stroke-width="1.3376" stroke-linecap="round" stroke-linejoin="round"/>
<path d="M6.02115 7.35675C7.49862 7.35675 8.69635 6.15902 8.69635 4.68155C8.69635 3.20408 7.49862 2.00635 6.02115 2.00635C4.54368 2.00635 3.34595 3.20408 3.34595 4.68155C3.34595 6.15902 4.54368 7.35675 6.02115 7.35675Z" stroke="#4A5565" stroke-width="1.3376" stroke-linecap="round" stroke-linejoin="round"/>
<path d="M14.7149 14.0448V12.7072C14.7145 12.1144 14.5172 11.5386 14.154 11.0701C13.7909 10.6017 13.2824 10.2671 12.7085 10.1189" stroke="#4A5565" stroke-width="1.3376" stroke-linecap="round" stroke-linejoin="round"/>
<path d="M10.7009 2.09326C11.2764 2.2406 11.7864 2.57527 12.1506 3.0445C12.5149 3.51374 12.7126 4.09085 12.7126 4.68486C12.7126 5.27887 12.5149 5.85598 12.1506 6.32522C11.7864 6.79446 11.2764 7.12912 10.7009 7.27646" stroke="#4A5565" stroke-width="1.3376" stroke-linecap="round" stroke-linejoin="round"/>
</g>
<defs>
<clipPath id="clip0_1_1353">
<rect width="16.0512" height="16.0512" fill="white"/>
</clipPath>
</defs>
</svg>
